<svg id="visual" viewBox="0 0 300 300" width="300" height="300" xmlns="http://www.w3.org/2000/svg" xmlns:xlink="http://www.w3.org/1999/xlink" version="1.1"><rect x="0" y="0" width="300" height="300" fill="#2f4f4f"></rect><path d="M0 146L12.5 140.3C25 134.7 50 123.3 75 133.3C100 143.3 125 174.7 150 188.3C175 202 200 198 225 180.5C250 163 275 132 287.5 116.5L300 101L300 301L287.5 301C275 301 250 301 225 301C200 301 175 301 150 301C125 301 100 301 75 301C50 301 25 301 12.5 301L0 301Z" fill="#ce952c" stroke-linecap="round" stroke-linejoin="miter"></path></svg>