<svg id="visual" viewBox="0 0 900 150" width="900" height="150" xmlns="http://www.w3.org/2000/svg" xmlns:xlink="http://www.w3.org/1999/xlink" version="1.1"><rect x="0" y="0" width="900" height="150" fill="#2f4f4f"></rect><path d="M0 80L25 78.5C50 77 100 74 150 66C200 58 250 45 300 45.8C350 46.7 400 61.3 450 71.7C500 82 550 88 600 81.3C650 74.7 700 55.3 750 49.5C800 43.7 850 51.3 875 55.2L900 59L900 151L875 151C850 151 800 151 750 151C700 151 650 151 600 151C550 151 500 151 450 151C400 151 350 151 300 151C250 151 200 151 150 151C100 151 50 151 25 151L0 151Z" fill="#ce952c" stroke-linecap="round" stroke-linejoin="miter"></path></svg>